PathFileType	4	(X/Y/Z)	motion_data.trc
DataRate	CameraRate	NumFrames	NumMarkers	Units	OrigDataRate	OrigDataStartFrame	OrigNumFrames
30.0	30.0	84	3	mm	30.0	272	2170
Frame#	Time	r_acromion			r_humerus_epicondyle			r_radius_styloid		
		X1	Y1	Z1	X2	Y2	Z2	X3	Y3	Z3

272	9.0333	405.6125	560.3221	-49.2075	369.8026	492.5639	-55.3326	454.5329	463.0889	-97.6239
273	9.0667	406.5785	559.4937	-71.6044	379.7901	489.2720	-73.5533	473.5657	457.4422	-103.8050
274	9.1000	408.7110	558.3998	-82.2025	392.5931	484.6675	-84.6171	496.1394	453.2622	-113.4872
275	9.1333	411.8905	557.4660	-79.4535	408.2006	480.4232	-87.3258	516.8007	451.3945	-124.8311
276	9.1667	415.4260	557.0299	-73.6466	422.8972	478.1259	-90.2877	530.0203	451.8765	-139.5760
277	9.2000	418.6000	557.0131	-72.0692	432.5964	477.9509	-97.5228	535.4237	453.6734	-155.9396
278	9.2333	421.3090	557.1180	-71.3051	436.8128	478.7405	-102.0981	537.3303	455.4025	-165.0773
279	9.2667	424.2878	557.3168	-65.7010	438.6128	479.3145	-96.2167	539.7994	456.2937	-158.1610
280	9.3000	428.5116	557.9371	-58.1786	440.8881	479.5474	-83.1030	543.0971	456.3298	-137.6763
281	9.3333	434.0548	559.1616	-58.0395	443.6414	480.1248	-74.8040	544.7465	455.7352	-118.6841
282	9.3667	439.6171	560.6285	-69.3855	445.1712	481.4613	-79.1977	543.1318	454.6545	-115.6179
283	9.4000	443.6607	561.7601	-86.1055	444.9268	483.1500	-92.8288	539.6040	453.2697	-129.1142
284	9.4333	446.1382	562.4133	-99.6119	444.1725	484.5435	-107.2944	537.0462	451.9696	-148.5705
285	9.4667	448.5569	562.9414	-107.9601	444.0590	485.6471	-118.3821	536.5827	451.2211	-164.5259
286	9.5000	452.0434	563.5936	-114.1416	444.2689	487.0842	-125.5909	536.2289	451.1600	-173.5553
287	9.5333	455.8606	564.1069	-117.8082	444.2366	488.9714	-126.4173	533.4397	451.3791	-173.9525
288	9.5667	458.3003	564.0213	-113.9297	444.6420	490.0655	-117.3314	528.6901	451.5276	-164.3446
289	9.6000	458.7216	563.2989	-101.0491	445.9513	488.8142	-100.9729	524.4943	452.3881	-148.7608
290	9.6333	458.2360	562.5305	-87.0869	445.5844	485.8414	-88.0014	518.9467	455.7871	-138.7140
291	9.6667	458.4871	562.4981	-82.5998	439.0050	484.6822	-88.1353	502.2943	462.4915	-144.9526
292	9.7000	460.1056	563.4776	-88.5859	425.2535	488.6944	-99.5470	465.5221	470.2743	-165.3459
293	9.7333	462.3832	564.9528	-95.4655	409.6188	497.3080	-110.6966	413.9151	475.3391	-184.9972
294	9.7667	464.1753	566.0907	-95.7211	398.5097	506.6242	-114.6066	366.5616	476.3667	-193.4870
295	9.8000	464.9145	566.5192	-92.9367	392.7841	513.6767	-117.4245	338.9060	476.2726	-198.8359
296	9.8333	464.8476	566.5494	-94.9157	388.2867	518.6414	-128.6404	329.6939	478.9551	-216.2974
297	9.8667	464.5561	566.6598	-101.9325	381.7669	522.7640	-146.2972	327.4712	484.7133	-244.7305
298	9.9000	464.3686	566.9545	-106.7254	373.8573	525.9062	-157.9878	325.0686	489.9095	-264.0215
299	9.9333	464.1670	567.1952	-103.4108	367.0045	527.1451	-154.7057	323.7401	491.1227	-257.5981
300	9.9667	463.6843	567.1882	-91.9327	362.7442	526.7334	-138.3931	326.2590	488.6070	-229.6951
301	10.0000	462.9410	566.9978	-76.8678	360.8103	526.1765	-118.2145	331.2516	485.3600	-199.0348
302	10.0333	462.2715	566.8542	-66.4171	359.3279	526.5511	-104.7437	335.4741	483.8118	-181.9788
303	10.0667	461.8272	566.9484	-68.5383	356.0778	527.4878	-104.8271	339.2175	484.1574	-182.5440
304	10.1000	461.1853	567.2692	-81.9659	350.7921	527.6900	-115.7834	347.1082	485.2400	-192.7637
305	10.1333	459.7200	567.5920	-93.6009	345.9177	526.0143	-125.5528	362.9517	486.0714	-200.0916
306	10.1667	457.3789	567.6950	-90.9387	343.9946	522.3526	-123.2536	384.5623	486.4531	-196.7202
307	10.2000	454.8335	567.6305	-76.4440	344.5774	517.9688	-109.9375	404.9094	486.7016	-184.1683
308	10.2333	452.8466	567.6919	-64.6105	344.9456	514.7388	-96.6742	418.7661	487.1600	-170.2152
309	10.2667	451.8572	568.0767	-64.6524	343.7307	513.5939	-92.0173	427.6114	487.9950	-161.1029
310	10.3000	452.2410	568.6866	-70.9575	342.5785	513.7760	-93.2211	437.5552	489.2529	-155.2963
311	10.3333	454.3948	569.2869	-72.2456	344.0958	513.7843	-91.1166	452.6039	490.8355	-146.1969
312	10.3667	458.1754	569.7247	-65.6176	349.3932	512.8256	-82.6450	470.3346	492.3715	-133.2634
313	10.4000	462.6513	569.9312	-57.9018	358.0490	511.1814	-75.4823	484.6886	493.3505	-127.0038
314	10.4333	466.8069	569.8312	-55.7270	369.1859	509.3985	-78.7765	492.8702	493.5455	-137.5299
315	10.4667	470.2070	569.3696	-58.2411	381.5197	507.3870	-91.4089	498.1719	493.2160	-159.7430
316	10.5000	472.7289	568.6164	-58.9705	393.1668	504.4080	-101.8576	505.4368	492.8200	-175.4588
317	10.5333	474.0980	567.7820	-52.4574	402.7835	500.0794	-99.9056	515.4634	492.5985	-171.4859
318	10.5667	474.1417	567.0994	-39.6549	410.8249	495.3496	-87.4337	525.5596	492.4785	-152.7587
319	10.6000	473.2748	566.6870	-28.1994	418.8479	491.9638	-76.2776	534.2852	492.2967	-135.7077
320	10.6333	472.3175	566.5049	-26.5935	427.4020	490.7082	-75.4735	542.6659	492.0271	-130.6862
321	10.6667	471.8119	566.4251	-37.1208	434.4868	490.7760	-83.3444	550.1581	491.7910	-135.1562
322	10.7000	471.6564	566.3707	-54.5738	435.8841	491.1273	-93.3669	552.1990	491.6940	-143.6631
323	10.7333	471.3601	566.4201	-71.4974	427.9983	491.6197	-103.6849	544.2458	491.6956	-157.1710
324	10.7667	470.4757	566.7694	-84.0278	411.6254	492.4918	-116.7511	527.4515	491.6812	-178.3840
325	10.8000	468.6866	567.5605	-93.2436	392.3952	493.8077	-131.8618	507.9772	491.6962	-203.1018
326	10.8333	465.5956	568.7063	-101.5240	376.3669	495.8992	-142.6019	490.3668	492.0010	-221.3750
327	10.8667	460.8295	569.8730	-107.5773	365.5505	499.3284	-142.0850	473.6097	492.6139	-224.9631
328	10.9000	454.6711	570.6906	-106.4257	358.2509	503.7364	-129.2812	454.7329	492.7108	-211.9384
329	10.9333	448.3686	571.0286	-95.9095	352.5239	507.4352	-110.4626	434.2189	490.9167	-187.6380
330	10.9667	443.2831	571.0179	-80.7646	347.8526	508.8432	-93.9606	415.3942	486.7266	-162.1435
331	11.0000	439.5560	570.7898	-67.1501	344.0872	508.0830	-82.4322	399.2740	481.4849	-143.2928
332	11.0333	435.9201	570.3176	-55.8403	340.5788	506.7661	-72.0375	383.1303	477.4187	-131.8485
333	11.0667	431.0516	569.5894	-44.1389	337.0588	506.3556	-59.8698	365.0128	475.7312	-124.7385
334	11.1000	424.9588	568.7924	-31.6217	334.4264	507.0067	-48.2123	347.3094	475.9575	-119.7445
335	11.1333	418.8666	568.1569	-21.1154	333.6590	507.8757	-40.5198	334.2893	476.8783	-115.8692
336	11.1667	413.9144	567.6811	-16.5128	334.2253	508.2091	-38.5267	327.3967	477.5714	-114.6830
337	11.2000	410.2587	567.1736	-20.8907	334.4306	507.9880	-44.4137	324.3174	477.7785	-122.3804
338	11.2333	407.3927	566.5626	-33.0832	333.3833	507.6743	-58.7798	322.2758	477.7898	-142.4646
339	11.2667	404.9863	566.0211	-45.2036	332.0090	507.5719	-74.1312	321.4194	478.1106	-164.5945
340	11.3000	403.1745	565.7528	-49.7716	331.8671	507.5333	-79.7233	324.6690	479.0732	-172.2907
341	11.3333	402.1215	565.7699	-51.9562	333.2018	507.2415	-78.1058	334.1565	480.7029	-166.5483
342	11.3667	401.6156	565.9392	-66.1611	334.4432	506.6595	-85.8240	348.2089	482.8956	-167.4442
343	11.4000	401.3196	566.1706	-94.9516	334.0017	506.0503	-109.2406	362.9615	485.3295	-183.9237
344	11.4333	401.3476	566.4730	-121.0368	332.9496	505.4139	-131.4783	377.3600	486.8436	-198.1636
345	11.4667	402.3281	566.8310	-128.6381	335.5451	503.9175	-134.9887	395.1557	485.3703	-192.5196
346	11.5000	404.6813	567.0728	-124.5023	345.8756	500.1993	-126.8567	420.4680	479.5432	-177.2691
347	11.5333	407.8458	566.9043	-127.4535	363.4686	493.6955	-127.9647	451.9453	470.6980	-175.5942
348	11.5667	410.4872	566.1384	-142.2208	383.1082	485.7630	-143.0354	482.7826	462.4940	-190.0154
349	11.6000	411.7770	564.9611	-154.4436	399.5181	479.1318	-155.1447	506.5232	457.9017	-199.5061
350	11.6333	412.4248	563.9203	-149.9514	411.3945	475.9229	-148.6717	521.9900	456.8892	-186.9858
351	11.6667	414.0583	563.4152	-127.3605	420.5875	476.0938	-124.9905	533.1601	457.5339	-155.8770
352	11.7000	417.4278	563.0317	-90.1772	428.9320	477.7151	-93.2616	545.9928	458.9757	-118.3130
353	11.7333	421.5546	561.6271	-41.2251	437.1277	478.6966	-59.0578	565.1451	462.3473	-80.7666
354	11.7667	424.8759	558.5412	6.8677	445.6855	478.3299	-29.4132	591.0352	468.4548	-48.0003
355	11.8000	426.9182	554.7952	28.9319	455.2213	477.3234	-17.9099	618.4522	475.1716	-30.4170
